<?xml version="1.0" encoding="UTF-8" standalone="no"?>
<svg
   xmlns:dc="http://purl.org/dc/elements/1.1/"
   xmlns:cc="http://creativecommons.org/ns#"
   xmlns:rdf="http://www.w3.org/1999/02/22-rdf-syntax-ns#"
   xmlns:svg="http://www.w3.org/2000/svg"
   xmlns="http://www.w3.org/2000/svg"
   xmlns:sodipodi="http://sodipodi.sourceforge.net/DTD/sodipodi-0.dtd"
   xmlns:inkscape="http://www.inkscape.org/namespaces/inkscape"
   width="55.224033"
   height="62.424335"
   viewBox="0 0 55.224032 62.424335"
   version="1.1"
   id="svg3"
   sodipodi:docname="logo_foreground.svg"
   inkscape:version="0.92.4 (5da689c313, 2019-01-14)">
  <metadata
     id="metadata9">
    <rdf:RDF>
      <cc:Work
         rdf:about="">
        <dc:format>image/svg+xml</dc:format>
        <dc:type
           rdf:resource="http://purl.org/dc/dcmitype/StillImage" />
      </cc:Work>
    </rdf:RDF>
  </metadata>
  <defs
     id="defs7" />
  <sodipodi:namedview
     pagecolor="#ffffff"
     bordercolor="#666666"
     borderopacity="1"
     objecttolerance="10"
     gridtolerance="10"
     guidetolerance="10"
     inkscape:pageopacity="0"
     inkscape:pageshadow="2"
     inkscape:window-width="1600"
     inkscape:window-height="877"
     id="namedview5"
     showgrid="false"
     inkscape:snap-page="true"
     inkscape:zoom="3.7886693"
     inkscape:cx="76.597256"
     inkscape:cy="31.734645"
     inkscape:window-x="-8"
     inkscape:window-y="479"
     inkscape:window-maximized="1"
     inkscape:current-layer="svg3" />
  <path
     id="Pfad_41"
     data-name="Pfad 41"
     d="m 9.2440057,62.357667 a 6.112,6.112 0 0 1 -4.179,-1.686 5.919,5.919 0 0 1 -1.835,-4.324 v -2.756 l 25.4790003,-16 a 1.888,1.888 0 0 0 0.6,-2.592 1.859,1.859 0 0 0 -1.588,-0.884 1.863,1.863 0 0 0 -0.99,0.286 l -23.5000003,14.751 V 6.0726667 a 5.919,5.919 0 0 1 1.835,-4.324 6.109,6.109 0 0 1 4.179,-1.68600004 5.969,5.969 0 0 1 3.1790003,0.93 l 20.278,12.74300034 -16.214,10.179 a 1.885,1.885 0 0 0 -0.6,2.59 1.859,1.859 0 0 0 1.589,0.885 1.852,1.852 0 0 0 0.99,-0.287 l 17.76,-11.149 16.19,10.174 a 5.968,5.968 0 0 1 2.807,5.08 5.968,5.968 0 0 1 -2.807,5.08 l -40,25.136 a 5.972,5.972 0 0 1 -3.1730003,0.934 z"
     inkscape:connector-curvature="0"
     style="fill:#003049" />
</svg>
